<svg width="582" height="578" viewBox="0 0 582 578" fill="none" xmlns="http://www.w3.org/2000/svg">
<g opacity="0.5">
<g opacity="0.5">
<path d="M288.002 292.981C284.154 290.417 287.04 284.775 291.273 284.198C295.57 283.75 297.301 289.263 294.351 292.34C292.748 294.071 290.183 294.455 288.002 292.981ZM289.092 291.314C291.401 292.853 293.838 290.93 293.838 288.814C293.902 287.917 293.646 287.211 293.197 286.699C291.016 284.455 286.142 289.327 289.092 291.314Z" fill="white"/>
<path d="M281.845 284.84C283.705 280.865 288.194 277.916 292.299 277.916C297.557 277.916 300.956 282.596 300.828 288.045C302.046 293.686 297.686 298.623 292.94 299.905C284.988 301.7 278.19 293.43 281.845 284.84ZM283.705 285.673C281.14 291.699 284.86 298.174 290.888 298.174C295.249 298.174 300.251 293.622 298.968 288.237C299.032 286.122 298.583 283.942 297.173 282.275C293.261 277.275 285.821 280.993 283.705 285.673Z" fill="white"/>
<path d="M272.547 286.122C275.176 275.096 284.09 268.3 292.363 268.3C299.417 268.3 307.241 272.467 308.588 280.481C309.229 282.724 309.486 285.16 309.422 287.661C311.538 295.289 307.626 304.008 300.572 307.598C286.014 314.842 268.635 302.726 272.547 286.122ZM291.657 307.726C303.137 307.726 310.063 297.277 307.434 288.045L307.369 287.917C307.498 283.942 306.856 281.827 306.6 280.865C305.381 273.621 297.814 269.967 291.401 270.352C283.385 271.057 276.587 277.596 274.471 286.635C271.841 297.725 280.306 307.726 291.657 307.726Z" fill="white"/>
<path d="M265.364 300.289C262.542 290.609 265.171 279.967 272.61 271.121C294.094 248.427 317.758 262.723 316.604 282.596C316.796 284.327 316.86 286.122 316.796 287.853C321.414 302.597 309.614 317.149 295.056 318.432C281.909 319.778 269.019 312.213 265.364 300.289ZM267.223 299.712C272.867 317.79 300.571 323.496 312.179 306.059C315.77 300.674 316.796 294.456 314.808 288.109C314.872 286.314 314.808 284.647 314.616 282.596C315.193 273.877 310.127 265.736 302.495 262.659C285.18 256.056 260.875 277.852 267.223 299.712Z" fill="white"/>
<path d="M260.104 311.252C246.381 278.75 285.179 240.221 310.895 253.107C318.399 257.21 326.158 265.992 323.85 277.275C324.235 280.224 324.427 283.365 324.235 286.635C326.736 301.123 320.258 319.393 304.996 325.099C288.578 330.42 267.223 327.663 260.104 311.252ZM287.552 255.286C252.345 271.057 246.445 325.548 289.412 325.548C294.414 325.548 299.544 324.714 304.29 323.176C318.591 317.855 324.619 300.546 322.247 286.827C322.247 286.827 322.503 282.147 321.798 277.211C323.914 267.659 318.078 259.325 309.934 254.838C302.879 251.312 294.863 252.081 287.552 255.286Z" fill="white"/>
<path d="M250.614 304.906C246.766 270.288 281.46 243.556 299.545 242.722C320.003 241.825 335.394 262.082 330.841 281.827C330.905 283.686 330.905 285.545 330.776 287.34C333.342 298.11 330.648 309.586 323.401 318.881C300.443 348.114 253.243 335.356 250.614 304.906ZM299.609 244.774C282.679 245.479 248.818 271.25 252.602 304.778C254.077 321.509 269.725 332.536 287.36 333.241C311.666 335.357 334.817 312.534 328.788 287.661C328.917 285.738 328.917 283.943 328.853 281.763V281.635C332.38 266.634 323.401 249.325 307.048 245.671C304.547 244.902 302.11 244.645 299.609 244.774Z" fill="white"/>
<path d="M244.328 293.173C248.624 263.428 282.549 227.336 314.807 238.106C328.659 243.042 341.1 260.607 337.509 280.993C337.573 283.109 337.573 285.288 337.445 287.404C339.497 303.623 332.891 319.585 323.015 329.33C294.862 356.383 237.915 337.151 244.328 293.173ZM246.316 293.43C240.159 335.548 294.798 353.69 321.669 327.855C331.096 318.56 337.445 303.495 335.521 287.404C335.713 284.134 335.585 280.673 335.585 280.673C336.29 276.762 336.611 270.608 335.457 265.543C331.865 252.85 324.17 243.491 314.23 239.965C283.511 229.772 250.548 264.454 246.316 293.43Z" fill="white"/>
<path d="M268.377 345.805C253.498 341.574 241.891 329.073 237.466 313.303C230.347 287.917 243.943 260.864 264.978 245.35C273.892 235.477 287.487 229.195 301.66 229.195C325.068 229.195 347.321 247.337 346.231 280.288C346.423 282.916 346.487 285.545 346.359 288.109C347.898 314.008 334.046 333.945 315.063 343.177C300.378 350.036 283.896 350.421 268.377 345.805ZM272.802 240.798C268.826 243.811 266.838 246.311 266.196 246.888C243.302 263.748 230.027 293.686 241.891 319.842C247.342 331.83 257.218 340.613 268.89 343.946C311.152 356.511 346.808 327.919 344.371 288.109C344.435 285.609 344.499 283.365 344.243 280.416C344.179 279.775 344.627 273.813 343.088 266.249C340.844 250.991 329.429 237.977 313.973 232.977C300.955 229.131 285.756 231.31 272.802 240.798Z" fill="white"/>
<path d="M242.918 341.831C237.339 336.83 232.658 330.484 229.515 323.112C226.116 315.098 225.731 310.226 226.052 302.982C227.078 281.763 236.762 262.018 250.935 246.568C252.73 244.645 254.59 242.722 256.514 240.991C258.63 238.491 260.939 236.183 263.376 234.067C274.086 224.772 285.821 219.387 299.802 219.387C322.76 219.387 345.847 233.747 353.094 261.633C356.621 275.416 357.391 299.136 352.453 315.034C347.194 331.958 333.085 345.293 317.758 352.344C310.383 355.87 302.559 357.857 294.736 358.499C276.266 360.101 257.219 353.434 242.918 341.831ZM229.515 317.086C231.631 324.137 235.287 330.74 240.289 336.318C250.87 348.177 275.881 360.678 302.239 355.357C320.644 351.639 337.061 339.459 345.398 325.996C348.797 320.547 350.914 314.393 352.196 308.175C353.671 300.802 354.377 289.391 353.799 282.404C353.607 273.429 352.324 264.133 349.182 255.671C338.601 224.836 299.032 210.989 272.162 230.028C266.775 233.362 262.093 237.529 258.053 242.273C257.412 242.914 255.68 244.388 252.474 247.914C238.686 262.979 229.13 282.211 228.104 303.11C227.719 310.226 228.233 312.919 229.515 317.086Z" fill="white"/>
<path d="M237.082 348.69C224.705 337.536 218.934 325.484 217.587 311.508C217.587 311.444 217.587 311.444 217.587 311.38C218.356 282.468 233.042 250.35 258.502 229.323C264.658 222.207 272.482 216.566 281.525 212.912C310.319 200.219 345.014 216.951 356.236 245.927C359.828 254.774 360.725 264.326 361.559 273.878C362.649 286.122 362.778 284.199 363.355 290.93C363.996 295.097 363.996 299.713 364.253 303.687C364.381 312.47 363.162 321.188 359.058 328.881C351.042 346.382 334.111 361.319 311.602 366.961C285.757 373.179 257.797 367.345 237.082 348.69ZM220.729 318.496C222.333 325.676 225.411 332.343 229.964 338.113C260.041 377.795 327.25 377.538 353.735 334.843C366.369 314.521 362.072 301.123 359.635 274.134C358.737 264.518 357.904 255.287 354.441 246.696C343.603 218.682 310.063 202.527 282.294 214.771C273.573 218.233 266.005 223.682 259.913 230.67C259.913 230.67 256.129 233.811 252.859 236.824C226.501 263.3 216.625 300.354 220.729 318.496Z" fill="white"/>
<path d="M204.761 306.38C209.506 277.916 220.601 253.107 234.966 234.644C238.75 230.028 248.305 221.117 252.858 217.335C286.398 182.782 340.011 194.321 361.816 233.17C368.036 244.26 371.435 260.287 371.884 263.684C372.653 273.429 374.77 284.135 375.732 293.366C383.363 326.445 364.317 360.87 327.57 374.846C264.081 398.886 200.079 350.293 204.761 306.38ZM206.749 306.636C206.62 309.393 206.685 312.149 206.813 314.97C211.11 355.614 269.019 394.847 326.865 372.987C345.142 366.063 360.661 353.049 369.19 335.548C375.539 321.445 376.694 306.572 373.744 293.751C373.744 293.751 373.359 290.096 372.782 286.058C371.82 278.685 370.537 271.505 369.896 263.877C369.062 259.069 367.908 254.325 366.433 249.709C353.735 201.565 291.914 179.897 254.269 218.746C254.269 218.746 251.96 220.669 249.908 222.464C241.828 230.477 239.199 231.567 232.016 242.016C219.511 260.351 210.789 282.66 206.749 306.636Z" fill="white"/>
<path d="M194.756 307.213C194.756 305.61 197.962 275.095 221.947 243.362C228.617 233.49 237.787 226.438 246.06 217.335C248.497 214.514 250.613 211.117 253.178 208.36C264.786 195.282 281.909 187.782 300.25 187.782C315.256 187.782 327.89 192.654 340.652 201.052C363.418 216.053 377.719 241.76 380.798 267.082C381.695 271.633 382.337 276.377 382.85 281.121C383.812 286.058 384.517 290.609 385.03 294.968C396.638 333.817 364.316 382.09 307.368 389.077C253.756 398.244 195.205 358.049 194.756 307.213ZM196.68 307.213C196.68 309.905 196.872 312.662 197.193 315.354C203.542 357.344 247.471 388.372 291.785 388.372C300.763 388.372 311.922 386.577 318.014 385.167C368.228 373.692 393.175 329.394 383.042 295.417L382.978 295.225C382.08 287.724 380.862 281.891 380.733 281.25C379.964 273.428 378.809 267.851 378.681 267.21C376.244 247.081 366.368 225.925 350.143 211.053C317.373 180.538 276.265 185.089 254.525 209.578C252.024 212.271 249.972 215.604 247.407 218.553C236.184 230.862 230.861 232.849 218.42 251.504C206.684 269.197 199.181 288.494 196.68 307.213Z" fill="white"/>
<path d="M188.278 307.213C188.278 307.085 188.278 307.149 188.278 307.021C190.972 284.84 203.605 264.326 215.149 245.478C225.153 226.759 241.057 212.656 256.513 199.834C285.756 177.653 322.118 178.807 346.039 197.527C360.468 207.72 372.14 223.746 378.424 240.414C384.773 255.864 387.916 273.685 388.429 282.276C389.583 287.533 390.417 292.341 391.122 296.892C395.996 313.368 394.136 333.112 384.26 350.934C366.432 379.975 335.393 392.411 301.468 394.078C247.919 400.232 190.972 361.063 188.278 307.213ZM190.266 307.213C190.395 309.97 190.715 312.662 191.1 315.355C198.475 361.768 250.164 397.989 301.34 392.027C301.981 391.963 306.855 391.834 313.589 390.873C330.583 388.501 347.385 383.244 361.302 372.987C372.46 364.717 382.016 353.627 387.146 340.036C392.469 325.868 393.238 310.739 389.198 297.341V297.213C388.172 289.904 386.505 282.468 386.505 282.468C386.12 275.545 383.811 263.364 381.567 255.543C375.859 235.093 365.919 216.374 349.566 202.719C341.87 196.437 336.291 193.231 331.16 191.052C306.663 180.474 279.279 185.09 257.731 201.437C227.462 226.567 223.742 235.029 212.391 253.812C202.964 269.454 192.639 287.789 190.266 307.213Z" fill="white"/>
<path d="M239.969 393.18C205.018 377.41 179.558 340.869 179.237 304.136C179.237 304.072 179.237 304.072 179.237 304.007C182.508 281.826 193.795 261.441 206.172 242.465C218.613 222.143 237.339 205.732 253.949 191.308L254.013 191.244C279.088 173.999 312.115 168.934 339.819 184.064C364.06 197.334 387.211 227.079 394.651 268.556C395.42 272.787 395.997 276.89 396.51 280.416C398.114 287.404 399.204 293.173 400.038 298.43C406.066 320.868 401.705 344.715 389.713 363.37C385.801 368.755 376.181 377.859 365.215 384.718C345.591 396.962 320.324 402.219 298.391 402.988C277.934 403.629 258.117 401.258 239.969 393.18ZM181.289 304.2C181.289 306.572 181.418 309.008 181.674 311.444C185.266 347.472 213.162 384.141 253.5 396.065C267.737 400.296 284.09 401.45 298.327 400.937C332.637 399.655 366.241 388.821 388.109 362.152C399.973 343.754 404.014 320.419 398.178 298.815V298.687C396.831 289.712 394.779 281.378 394.651 280.608C392.534 265.736 389.841 249.004 379.772 229.387C366.305 204.578 344.95 182.653 317.374 178.038C296.147 174.383 273.637 180.217 255.296 192.782C221.82 222.015 215.407 231.246 203.414 250.606C190.46 271.441 183.662 287.981 181.289 304.2Z" fill="white"/>
<path d="M273.124 413.887C235.223 413.759 203.414 390.873 184.239 358.37C172.952 339.651 163.589 317.727 166.155 295.93C169.425 276.378 182.251 260.992 194.436 246.055C205.531 232.529 214.381 218.618 248.818 186.115C252.474 183.038 256.322 180.025 260.683 176.948C274.727 168.23 291.016 163.806 306.985 163.806C337.19 163.806 358.738 177.589 377.015 200.475C390.803 217.784 402.282 241.632 407.348 267.98C409.849 281.058 411.709 286.058 413.89 299.649C419.276 323.112 416.134 349.588 401.577 369.012C398.562 373.051 394.843 376.833 394.137 377.474C364.445 399.399 328.147 412.669 289.477 414.015C283.898 414.272 278.447 414.207 273.124 413.887ZM255.488 183.295C244.265 192.013 217.972 218.361 201.17 240.927C186.035 259.774 167.63 279.134 167.63 303.239C167.566 338.69 205.338 411.707 273.188 411.964C314.103 414.528 357.327 402.284 392.855 376.064C401.577 367.409 407.541 357.537 411.132 344.908C418.699 318.111 411.004 297.661 405.617 269.711C399.909 240.35 386.249 210.796 364.894 190.218C336.549 160.024 288.259 157.972 255.488 183.295Z" fill="white"/>
<path d="M258.116 421.003C194.691 414.72 152.686 344.203 157.367 283.878V283.75C165.255 264.902 179.62 250.094 192.959 234.003C209.312 214.771 226.243 194.962 245.097 178.102C286.205 145.728 337.637 150.408 366.431 178.166C383.939 193.487 397.278 214.13 406.898 235.542C412.541 249.004 417.543 270.352 419.467 283.622C424.405 306.572 427.612 324.33 421.904 346.831C418.505 362.922 409.527 376.641 397.342 387.603C396.124 388.565 378.937 400.809 353.67 409.976C323.977 419.977 289.411 425.105 258.116 421.003ZM159.291 284.199C154.866 342.792 196.038 412.861 258.308 419.015C265.17 419.913 272.673 420.426 280.689 420.426C319.809 420.426 362.455 409.463 396.06 386.129C412.541 371.256 419.531 355.229 422.161 334.843C424.598 315.675 421.263 304.456 417.543 283.878C415.748 271.377 412.349 258.428 408.886 246.183C401.382 224.259 385.157 197.206 365.085 179.64C339.176 154.703 299.544 151.818 267.03 166.498C244.199 177.781 230.027 193.616 186.931 244.132C176.478 256.44 165.64 269.198 159.291 284.199Z" fill="white"/>
<path d="M244.458 432.414C183.406 418.182 149.096 350.357 143.709 289.648C144.414 283.686 145.569 278.045 147.364 272.403C147.557 271.891 148.839 269.198 150.186 266.698C154.034 259.774 152.174 263.236 175.518 234.516C190.203 216.438 220.473 185.475 237.275 168.871C237.916 168.294 241.572 165.473 244.009 163.678C253.115 157.011 262.606 152.267 272.675 148.677C304.932 135.279 346.873 140.279 373.616 165.794C394.458 183.808 410.491 208.361 422.162 233.555C424.599 239.388 433.321 269.839 436.079 300.098C439.349 316.701 438.836 333.882 435.052 349.46C432.038 362.409 425.946 375.167 415.813 387.347C408.182 395.809 400.615 404.592 390.354 408.759C374.321 417.221 357.647 423.952 339.434 428.824C309.165 437.158 274.727 439.402 244.458 432.414ZM145.761 289.712C151.212 349.588 183.983 416.323 244.906 430.491C291.657 441.261 345.655 430.234 389.456 407.028C399.14 402.54 404.013 397.54 413.184 387.347C434.219 363.948 439.99 330.164 434.155 300.418C434.09 299.777 433.706 294.264 432.102 283.75C428.639 261.377 423.445 242.337 420.431 234.26C410.298 212.399 398.113 193.68 384.261 178.743C368.357 161.563 353.351 150.28 330.584 145.6C305.317 140.472 286.655 144.318 265.685 153.485C254.975 158.165 248.177 162.588 238.686 170.217C190.524 217.848 178.596 234.067 155.124 262.467C152.944 265.864 150.956 269.326 149.352 272.98C147.557 278.494 146.402 284.071 145.761 289.712Z" fill="white"/>
<path d="M264.401 440.171C235.478 437.415 212.199 429.273 190.074 407.156C158.778 376 144.093 330.356 138.449 286.956C138.449 286.828 138.449 286.892 138.449 286.763C138.706 279.455 139.604 272.788 139.796 272.147C142.554 262.211 148.197 256.89 152.75 252.018C164.422 239.388 158.201 246.697 169.296 233.042C170.899 231.055 172.182 229.516 173.4 228.17C174.875 226.247 176.158 224.58 177.504 222.913C177.504 222.913 211.493 189.513 234.901 163.935C235.542 163.358 239.711 160.152 241.891 158.55C245.162 156.178 252.729 150.408 266.838 145.023C285.051 136.689 306.406 134.638 326.8 139.382C346.936 142.844 366.368 151.69 381.31 165.986C401.191 184.321 416.454 208.81 428.574 232.978C428.895 233.619 431.524 240.03 433.833 247.594C437.103 259.005 439.091 270.801 440.31 282.596C441.08 288.302 443.26 307.726 443.516 312.855C446.659 370.102 416.902 413.374 347.449 432.478C321.092 439.402 291.849 442.799 264.401 440.171ZM140.373 286.828C146.081 330.933 159.676 366.897 180.711 393.694C207.902 428.183 240.352 439.081 283.576 439.081C316.282 439.081 354.504 431.901 385.03 415.618C417.415 398.822 436.398 371.641 440.695 335.933C442.106 324.138 441.913 312.022 440.118 300.098C437.809 280.032 437.039 258.685 426.714 233.875C415.363 211.246 403.756 193.36 391.25 179.192C375.41 161.178 358.672 148.998 333.79 142.972C308.971 136.946 290.951 137.074 267.479 146.946C253.563 152.203 246.124 157.909 242.917 160.217C230.348 169.384 244.136 159.383 178.915 224.259C176.863 226.759 174.811 229.516 174.811 229.516C172.566 232.016 170.386 234.773 168.27 237.401C153.584 255.8 145.439 259.198 141.656 272.66C141.014 277.34 140.566 282.084 140.373 286.828Z" fill="white"/>
<path d="M185.392 418.182C179.107 411.899 176.221 406.771 173.656 402.668C150.441 365.678 120.62 318.624 131.587 271.505C132.036 270.287 141.399 251.632 155.507 233.362C157.303 231.054 159.099 228.746 161.151 226.31C162.113 224.836 163.203 223.297 164.421 221.759C166.025 219.707 167.82 217.592 168.077 217.335C187.316 200.283 207.068 183.038 222.203 161.819C225.217 158.165 234.003 151.369 238.428 148.228C239.069 147.779 246.957 143.035 256.833 139.125C279.471 127.329 306.662 124.893 332.186 132.586C353.157 136.945 371.177 146.241 384.709 158.229C407.603 178.551 424.854 206.181 438.321 233.747C438.578 234.388 440.822 239.965 442.682 246.311C446.209 257.402 448.839 269.134 450.185 281.25C451.276 289.648 452.879 308.11 452.943 316.637C453.135 338.241 448.646 360.358 438.193 379.013C425.559 401.578 408.308 414.592 383.041 427.029C358.287 438.76 337.701 444.466 316.602 447.479C250.484 456.774 205.593 438.44 185.392 418.182ZM133.446 272.082C132.356 276.762 131.587 281.57 131.138 286.378C129.791 330.612 154.674 368.691 178.209 406.194C188.278 421.451 203.541 431.003 220.664 437.542C254.204 450.428 295.824 449.979 331.16 442.799C346.615 439.465 361.622 434.273 376.051 427.862C398.368 417.926 419.98 404.463 432.806 383.949C448.839 359.652 453.264 328.432 449.865 299.52C448.71 277.467 444.67 255.158 436.462 234.516C400.677 161.434 365.213 141.433 331.673 134.509C329.749 133.996 318.27 130.15 302.237 130.15C286.525 130.15 271.134 133.868 257.603 140.92C252.921 143.035 238.556 147.779 223.678 163.037C208.415 184.384 188.598 201.693 169.359 218.746C166.987 221.502 164.742 224.323 162.69 227.464C161.6 228.939 151.018 241.119 141.655 257.146C138.577 262.338 135.819 267.21 133.446 272.082Z" fill="white"/>
<path d="M202.708 437.606C189.754 429.401 179.301 420.041 174.812 414.72C145.183 376.961 124.469 329.522 122.161 282.981C122.096 282.019 123.315 271.441 124.469 266.633C125.944 261.377 128.51 256.505 129.279 255.415C136.718 246.696 144.606 237.208 152.109 228.105C154.611 224.836 162.37 214.322 164.358 212.207C188.215 190.667 204.119 175.153 219.959 150.472C221.434 148.677 234.068 137.971 259.207 130.15C282.55 120.47 307.176 119.06 329.109 125.021C350.464 125.791 369.767 135.984 384.966 150.6C408.63 171.819 427.036 200.668 443.068 227.4C447.621 236.183 453.072 258.107 455.189 268.108C457.562 279.391 458.523 286.058 459.036 299.136C462.179 330.227 456.535 363.884 438.387 389.654C422.29 412.925 400.037 425.106 377.655 435.427C359.891 443.632 335.714 451.197 314.423 454.274C277.612 459.595 234.068 456.069 202.708 437.606ZM176.287 413.438C183.597 421.451 192.832 429.016 203.67 435.876C249.459 462.864 321.221 459.21 376.822 433.568C400.999 422.413 431.268 406.835 447.365 369.525C456.6 348.049 459.421 322.983 457.048 299.264C456.535 286.122 455.509 279.519 453.201 268.557C448.904 248.171 444.8 236.631 441.337 228.426C417.544 188.872 382.273 133.996 336.548 127.714C332.764 127.201 328.724 127.009 328.724 127.009C307.24 121.175 282.999 122.457 259.912 132.073C257.796 132.842 248.689 135.214 236.697 141.625C231.952 143.997 225.41 148.1 221.562 151.754C205.658 176.499 190.01 191.885 165.769 213.745C155.765 225.797 161.793 220.477 130.818 256.761C127.419 262.595 125.239 268.3 124.085 283.045C126.008 321.445 140.823 362.73 165.897 399.335C169.232 404.079 172.695 408.887 176.287 413.438Z" fill="white"/>
<path d="M164.615 418.887C164.166 418.246 158.138 408.566 156.727 406.322C132.486 367.153 110.361 324.714 112.285 279.455V279.391C115.62 249.709 123.443 247.081 143.067 224.515C151.404 212.207 161.537 202.078 162.178 201.565C184.56 187.013 201.362 163.87 214.188 140.471C224.064 130.919 240.738 122.65 254.846 118.995C279.729 105.854 308.972 109.251 336.035 116.88C341.422 117.136 347.065 117.329 352.452 117.329C365.471 117.329 379.259 124.765 390.225 137.779C399.524 148.613 395.227 148.356 422.29 179.064C445.12 204.963 461.538 225.221 464.167 265.159C465.257 282.147 462.564 275.352 465.899 299.713C475.005 332.022 467.438 367.922 449.161 395.168C421.905 436.645 356.428 461.647 307.241 466.775C255.744 472.16 196.808 459.723 164.615 418.887ZM166.218 417.669C170.707 423.311 175.838 428.632 181.545 433.375C226.885 471.327 310.832 478.955 388.942 441.068C422.931 424.593 447.814 403.63 460.832 367.666C467.181 350.229 469.041 332.343 467.117 315.868C466.091 306.828 464.103 300.61 463.975 299.969C460.576 275.288 463.333 282.147 462.243 265.223C459.614 225.477 443.132 205.54 420.879 180.282C393.688 149.446 397.985 149.703 388.814 138.933C378.233 126.368 365.022 119.188 352.517 119.188C345.398 119.188 336.292 118.803 335.65 118.675C308.972 111.11 280.114 107.713 255.744 120.662C255.744 120.662 251.64 121.752 247.856 123.098C237.146 126.817 223.935 133.868 215.855 141.561C202.837 165.217 186.035 188.295 163.397 203.04C157.625 208.809 150.442 217.079 144.735 225.541C144.735 225.541 134.153 237.208 124.149 248.876C121.071 253.428 118.826 258.043 117.479 262.595C104.846 310.419 132.614 363.499 158.394 405.233C161.152 409.72 163.91 414.079 166.218 417.669Z" fill="white"/>
<path d="M214.893 462.544C190.908 453.825 165.705 433.631 154.996 417.989C129.408 376.576 92.9175 318.944 104.91 264.902C106.577 256.697 110.361 249.196 111.772 247.016C140.374 209.834 138.193 211.309 147.3 202.206C159.356 190.09 154.996 194.898 164.807 188.487C181.866 177.525 193.474 162.395 201.875 144.51C206.236 135.278 202.388 142.202 208.544 130.919C209.506 128.996 211.815 127.201 213.739 126.239C215.599 124.701 217.587 123.162 219.703 121.623C230.541 113.867 241.828 108.61 255.039 106.751C282.55 100.981 309.549 100.917 333.726 106.622C338.151 106.494 341.807 105.725 342.448 105.661C361.815 105.212 379.002 108.802 390.866 124.124C399.716 136.176 408.951 147.138 418.506 158.549C448.84 194.577 471.221 222.015 474.107 262.979C475.262 279.198 472.632 273.3 475.775 297.853C487.895 337.343 471.414 381.577 441.593 412.22C436.399 418.566 429.409 422.605 423.765 428.246C423.124 428.823 411.965 437.67 397.087 446.389C365.663 463.377 331.61 472.865 300.186 475.173C269.276 477.416 239.583 472.416 214.893 462.544ZM215.599 460.749C240.289 470.557 269.66 475.429 299.994 473.249C330.905 471.006 364.637 461.71 396.061 444.722C416.775 432.67 425.304 424.015 430.05 420.169C437.104 414.528 437.681 413.566 440.118 410.873C446.018 404.783 451.085 398.693 455.381 392.667C474.107 365.422 483.663 330.227 473.851 298.43C473.723 297.789 472.504 288.173 472.119 279.647C472.055 278.749 473.787 265.351 469.875 247.145C459.999 201.052 421.392 169.255 389.327 125.406C380.798 114.379 368.741 108.802 351.426 107.84C339.37 107.135 341.935 108.482 333.662 108.674C332.059 108.738 301.661 98.9937 255.423 108.738H255.359C232.785 111.879 218.292 125.598 214.701 127.97C212.905 128.867 211.109 130.278 210.147 132.073C203.927 143.484 208.159 135.791 203.606 145.407C194.949 163.87 183.02 179.191 165.834 190.218C157.753 195.475 159.1 193.359 154.226 198.231C139.668 212.912 150.827 199.513 113.311 248.299C110.169 253.812 107.988 259.581 106.77 265.479C96.2523 312.918 123.828 363.819 149.031 404.783C151.019 408.053 153.072 411.322 155.06 414.592C164.936 430.426 190.716 451.645 215.599 460.749Z" fill="white"/>
<path d="M240.609 483.891C211.045 476.006 178.659 459.915 154.354 438.055C142.49 426.964 133.64 414.976 127.611 402.476C111.643 366.768 82.7203 320.932 86.6964 280.288C92.0834 239.196 109.847 227.592 125.752 207.975C131.844 201.308 135.179 192.141 142.81 186.179C161.408 170.729 183.661 153.933 193.153 127.265C195.076 122.649 198.732 120.79 204.632 115.79C219.895 104.379 236.569 95.9167 255.487 92.5191C282.935 83.0313 311.729 90.1471 339.562 94.4423C354.825 94.7628 364.637 94.3141 366.047 94.3141C377.27 94.3141 387.852 98.6733 395.034 106.302C412.927 125.47 424.598 147.907 441.978 167.781C455.83 183.166 470.323 203.616 479.301 222.976C487.638 241.439 491.871 259.517 491.23 279.967C492.384 304.777 494.308 300.097 495.27 315.29C497.322 348.946 482.829 383.628 463.461 407.476L463.397 407.54C429.023 443.44 389.519 469.724 340.139 483.571C304.098 492.93 271.391 492.161 240.609 483.891ZM88.6845 280.48C86.504 314.008 102.152 345.613 117.222 376.128C121.455 384.718 125.623 393.116 129.407 401.642C135.307 413.823 143.965 425.682 155.7 436.645C181.801 460.172 220.921 479.788 260.938 486.263C301.533 492.546 338.792 484.468 375.282 468.762C425.496 445.043 458.331 411.579 466.283 400.168C480.135 381.128 490.588 356.767 492.897 332.663C494.115 319.97 493.218 308.431 490.524 297.789C490.396 297.148 489.562 287.34 489.177 279.839C489.113 278.878 489.947 267.659 486.869 251.953C480.456 221.438 460.832 191.564 440.438 168.934C422.931 148.997 411.259 126.496 393.495 107.52C386.633 100.34 376.629 96.1732 365.919 96.1732C365.919 96.1732 357.839 96.4296 350.143 96.4296C337.894 96.4296 340.075 96.4937 327.441 94.3782C303.328 90.3395 279.087 86.3007 255.872 94.3141C255.808 94.3141 251.639 95.0834 247.086 96.3014C228.937 101.238 213.674 110.661 199.566 122.265C197.834 123.675 195.91 125.47 194.884 127.906C186.226 152.203 166.795 169.127 149.223 183.102C141.079 190.282 140.63 189.385 133.768 200.026C130.369 205.283 129.407 206.693 123.251 213.745C120.75 216.63 106.064 232.593 103.05 237.913C98.2398 245.286 95.0975 252.658 92.5964 261.312C90.929 267.531 89.5181 273.941 88.6845 280.48Z" fill="white"/>
<path d="M236.313 491.776C196.937 479.66 160.703 455.235 137.617 428.695C127.42 416.964 117.031 400.873 109.335 387.859C93.2384 359.652 81.8874 327.406 75.6026 295.417C75.5385 294.776 75.2178 287.275 75.8591 278.749C77.27 267.466 80.3483 255.286 82.9135 248.363C84.2602 244.773 85.8635 241.183 87.6591 237.785C91.3145 229.323 97.471 222.72 103.499 216.309C108.053 211.501 112.542 206.693 116.005 201.052C121.52 193.038 127.356 185.346 133.961 178.358C138.258 174.127 142.683 170.345 146.402 167.588C148.198 166.37 149.481 164.639 151.725 163.742C172.119 156.626 174.171 138.74 183.983 122.2C189.69 112.52 194.5 108.738 203.606 101.943C219.126 90.4034 236.249 81.8772 255.68 79.954C298.968 75.5306 324.941 80.9797 340.845 82.1977C363.483 82.5823 377.335 81.8131 376.694 81.8131C382.273 81.8131 393.56 85.7877 400.422 93.4164C426.715 124.444 472.633 183.166 489.755 216.886C494.886 227.464 497.643 234.451 500.401 245.734C504.762 264.325 504.377 275.544 504.89 294.584C509.892 324.586 503.479 360.806 483.791 393.308C481.354 397.475 478.661 401.514 475.775 405.553C475.262 406.194 461.217 422.22 440.439 439.657C428.126 449.915 430.563 447.35 400.807 468.762C400.679 468.89 397.664 470.493 397.472 470.621C381.824 479.275 369.896 485.878 345.142 492.994C311.922 501.713 271.584 502.739 236.313 491.776ZM77.5907 295.097C81.1178 312.918 86.12 330.419 92.4689 347.151C97.4069 360.165 103.756 377.153 121.84 403.886C149.865 449.338 201.17 482.288 251.191 493.699C276.138 499.405 316.347 500.303 352.645 488.507C371.563 482.353 380.221 477.737 396.51 468.762C400.999 466.262 396.831 468.954 414.723 456.325C423.252 450.299 446.916 434.721 474.172 404.335C496.938 373.05 509.123 332.15 502.902 294.84C502.517 290.93 502.966 274.326 501.171 260.992C498.092 238.17 491.551 222.848 479.815 202.847C456.023 166.242 429.537 130.855 398.947 94.7626C395.484 90.9162 390.995 87.9673 385.608 85.98C377.335 82.6464 379.516 84.3132 353.735 84.3132C340.781 84.3132 340.011 84.1209 332.957 83.6081C331.097 83.4157 313.205 80.2745 288.451 80.2745C277.549 80.2745 258.374 81.1079 248.113 83.0952C230.221 86.6211 213.162 96.2371 199.246 107.905C196.937 109.7 191.678 113.161 185.778 123.162C177.377 137.394 172.696 159.639 152.559 165.601C151.405 166.049 150.507 166.819 149.609 167.652C147.557 169.447 147.428 169.255 143.516 172.524C126.907 186.371 119.083 201.244 113.183 208.552C102.409 221.822 93.3026 226.31 84.9015 249.004C82.4004 255.799 79.3222 267.915 77.9754 278.877C77.4624 284.262 77.3983 289.776 77.5907 295.097Z" fill="white"/>
<path d="M238.044 505.303C195.013 491.328 150.506 458.761 123.123 426.964C92.9815 392.667 72.8446 346.959 65.9186 305.931C64.7001 298.879 63.9947 292.468 63.9947 291.827C63.7382 276.057 65.9186 259.902 71.8186 245.093C74.2555 239.003 76.2435 235.541 78.0392 232.208C82.4 224.066 84.2598 220.989 94.5848 211.501C106.449 200.539 104.781 200.731 112.605 187.59C122.481 172.268 120.878 174.319 133.576 164.191C136.718 161.69 138.45 160.216 138.45 160.216C154.547 148.548 163.525 131.368 176.543 116.239C186.868 103.161 200.207 95.8526 223.615 76.6847C233.17 69.2483 244.521 70.0176 256.449 70.9792C270.43 72.069 300.443 68.6072 331.225 70.0817C342.063 70.1458 332.764 70.4022 372.91 68.6072C383.235 68.1585 408.759 77.9668 422.803 99.3785C458.973 155.023 508.994 197.334 516.69 262.082C517.844 271.954 517.78 278.621 517.587 295.033C520.345 329.522 514.06 364.973 496.809 395.873C484.56 417.413 468.913 433.311 448.263 449.338C412.991 476.84 390.546 495.495 345.847 505.816C317.822 510.752 288.963 507.867 260.874 509.598C260.169 509.534 250.1 508.829 238.044 505.303ZM67.8425 305.61C69.3816 314.649 71.3055 323.24 74.5762 334.01C84.4522 366.704 101.318 399.142 124.598 425.618C155.316 461.262 214.957 503.893 260.746 507.483C288.835 505.688 317.63 508.572 345.334 503.7C372.717 497.354 397.408 486.071 421.52 467.031C472.953 429.401 502.196 403.309 513.676 340.292C515.856 326.894 516.626 309.841 515.471 294.968C515.279 292.661 516.305 276.762 514.573 262.146C509.122 216.373 481.995 181.563 454.676 146.433C443.453 132.009 431.91 117.136 420.943 100.34C416.454 93.4807 410.682 87.5188 403.821 82.6466C395.933 77.0693 382.786 70.4663 372.782 70.4663C363.162 70.9151 355.21 71.2997 347.129 71.6203C320.323 72.8383 333.726 70.274 278.959 72.646C260.233 73.4794 262.927 73.4153 256.065 72.9024C244.778 72.0049 233.683 71.1074 224.641 78.1592C201.297 97.3271 188.022 104.571 177.89 117.457C165.064 132.329 155.765 149.959 139.476 161.754C137.231 163.678 134.859 165.537 132.55 167.396C122.353 175.473 123.315 174.384 114.144 188.615C106.256 201.757 107.86 201.757 95.8033 212.976C85.6066 222.4 83.875 225.284 79.7066 233.169C77.2696 237.721 68.8686 251.504 66.4958 276.057C65.3414 288.686 65.9827 294.456 67.8425 305.61Z" fill="white"/>
<path d="M260.939 517.547C256.45 516.97 251.961 516.201 247.6 515.175C207.326 503.764 168.078 480.044 127.548 442.606C123.7 438.824 119.981 434.913 116.389 431.003C85.6069 397.731 64.8929 350.42 57.7744 308.559C56.556 301.315 55.7864 294.647 55.7223 294.006C55.2092 274.71 58.0951 255.094 66.432 237.528C71.4342 227.015 70.7929 229.451 98.7536 192.91C108.309 180.473 111.58 175.088 117.351 169.19C120.686 166.049 129.728 159.831 134.538 156.113C150.956 144.06 160.383 126.816 172.503 109.699C178.019 101.686 185.586 97.0061 192.512 91.8775C205.274 82.3897 220.665 72.966 236.826 64.9526C243.56 61.7473 250.935 62.1319 258.31 62.5166C267.608 63.0294 264.53 62.6448 280.114 62.6448C299.353 62.6448 309.614 63.7346 334.047 62.1319C355.21 60.9139 375.539 55.9777 394.137 66.1066C421.713 76.4278 426.587 93.0955 443.71 114.571C509.251 203.744 528.682 221.694 525.989 293.942C526.438 301.635 526.502 310.225 525.732 320.995C522.911 358.177 513.548 381.32 499.952 404.27C497.323 408.693 494.822 412.54 494.244 413.181C474.941 433.182 457.498 449.85 434.475 469.339C387.724 509.79 361.687 513.316 332.829 516.201C308.972 518.38 284.731 519.021 260.939 517.547ZM66.6244 337.15C80.6048 382.73 101.768 414.335 128.895 441.132C169.169 478.314 208.16 501.905 248.049 513.252C252.41 514.277 256.77 515.047 261.131 515.56C284.924 517.034 309.101 516.393 332.572 514.085C360.854 511.264 386.634 507.995 433.128 467.736C456.472 447.991 474.108 431.067 492.705 411.706C514.317 380.743 523.552 346.382 524.257 308.366C524.322 303.302 524.193 298.045 523.937 293.814C524.129 288.173 524.322 281.698 524.386 275.544C524.193 264.71 522.847 253.683 520.281 242.657C517.267 230.092 514.445 223.232 508.674 211.629C499.182 193.359 492.898 184.448 450.892 127.649C422.483 89.2491 420.944 84.6334 410.49 76.9406C402.218 70.8505 394.137 68.158 393.175 67.7733C380.606 60.978 365.792 60.978 351.491 62.6448C314.231 66.4912 299.93 64.1193 265.428 64.6962C255.68 64.6962 245.997 62.7089 237.595 66.6835C221.435 74.6969 206.172 84.1206 193.602 93.4161C186.804 98.4805 179.301 103.032 174.042 110.789C156.022 136.239 153.328 144.958 129.151 162.523C117.993 170.665 117.351 170.857 105.744 186.948C73.8711 229.002 73.7428 226.63 68.1635 238.298C62.5842 250.029 59.1853 263.491 58.031 278.172C57.582 284.39 55.7223 301.379 66.6244 337.15Z" fill="white"/>
<path d="M258.821 529.984C251.767 529.856 244.713 528.574 243.302 528.189C197.962 510.752 159.291 479.404 121.262 448.44C113.053 441.773 109.077 438.568 109.077 438.568C77.6536 409.079 63.9297 362.153 49.6928 319.329C48.4102 314.521 45.5243 297.084 45.845 278.429C46.2298 257.787 50.5906 236.824 61.8775 219.451C70.8558 203.232 86.1829 193.872 96.4437 179.833C102.536 171.435 101.125 171.178 107.025 163.421C113.502 154.895 116.581 155.023 128.252 145.472C145.119 131.817 154.61 112.008 170.065 96.1092C173.849 91.8782 178.851 88.5446 183.404 85.2111C215.79 60.4017 246.637 50.6575 264.401 50.337C275.303 50.1446 291.592 51.4268 300.185 51.6191C313.268 51.8755 309.677 52.4525 325.709 51.8114C337.445 50.978 348.155 50.1446 359.698 48.4779C376.628 45.8495 401.383 57.3246 406.962 61.2992C435.115 81.3006 449.288 101.558 471.156 133.099C504.248 180.73 486.676 151.562 517.587 199.129C517.971 199.77 520.665 204.77 523.038 210.091C531.823 230.157 536.184 252.338 536.313 274.326C536.184 279.647 535.992 285.353 535.735 291.763C536.12 295.674 536.184 299.713 535.992 304.841C535.992 343.882 527.206 382.09 505.145 415.169C504.696 415.81 491.55 431.58 478.147 445.107C468.719 455.043 458.459 464.531 447.556 473.506C416.966 497.546 385.799 522.163 346.487 526.907C329.749 530.561 313.011 528.766 296.209 528.766C279.792 528.766 273.828 528.51 266.26 529.6C263.567 529.792 261.322 529.984 258.821 529.984ZM243.943 526.33C248.881 527.356 253.883 527.933 258.885 528.061C268.12 528.061 265.555 526.587 286.654 526.779C294.862 526.843 290.437 526.779 296.209 526.779C304.546 526.779 312.947 527.228 321.22 527.228C336.932 527.228 343.281 525.433 346.167 524.984C384.709 520.368 415.62 496.136 445.44 472.609C448.262 470.365 453.649 465.749 456.727 462.993C469.81 451.325 487.125 433.696 503.478 414.015C525.218 381.385 534.004 343.69 533.94 304.841C534.068 300.354 534.068 296.251 533.683 291.827C533.94 285.93 534.196 280.16 534.26 274.326C534.132 252.979 529.964 231.054 521.178 210.925C517.074 201.565 515.278 199.129 506.043 185.218C487.061 156.626 499.374 177.204 469.489 134.253C466.347 129.701 462.884 124.765 459.164 119.508C435.692 86.0445 420.75 73.6078 405.808 62.966C402.152 60.4017 394.713 57.2605 390.545 55.7219C380.797 52.1961 370.6 48.9266 360.019 50.5293C349.181 52.0678 330.134 53.9269 319.232 54.0552C316.025 54.1834 312.049 54.1834 311.408 54.1834C303.777 53.4782 296.209 53.927 288.321 53.1577C279.599 52.6448 265.491 52.0679 256.256 52.9653C230.155 57.7734 205.722 70.5947 184.559 86.8138C180.069 90.0832 175.131 93.3526 171.476 97.4555C156.149 113.162 146.529 133.227 129.471 146.946C115.747 158.101 111.514 157.203 102.087 174.832C89.1329 197.334 65.1482 205.027 53.2841 242.465C45.845 265.864 46.6146 294.905 51.6167 318.688C55.9134 331.574 54.9515 329.33 61.4286 348.177C72.3308 378.5 84.7079 412.861 110.424 437.029C114.464 440.299 118.44 443.568 122.481 446.838L122.801 447.094C160.125 477.545 198.667 508.893 243.943 526.33Z" fill="white"/>
<path d="M218.036 531.844C186.997 510.304 162.692 489.02 131.268 467.929C121.712 461.711 113.375 455.044 105.167 447.415C65.9191 410.682 45.8464 350.485 37.5095 297.469C37.4453 296.828 36.8682 289.712 36.804 282.212C36.6117 262.21 39.4334 242.209 48.091 224.259C53.7985 209.13 65.2778 199.321 71.1778 194.065C85.9919 180.923 85.9278 178.679 90.6093 169.896C92.2125 166.947 95.4832 161.306 95.9321 160.537C100.293 149.959 104.59 153.421 122.418 136.433C133.641 126.24 142.298 114.636 150.379 101.623C154.675 93.2246 162.307 88.096 168.976 82.3905C174.107 78.4159 191.101 65.7869 204.184 58.671C222.589 48.6703 242.277 42.7725 253.243 41.6186C263.632 41.0416 267.801 42.0673 273.124 42.0032C297.942 41.7468 321.542 41.4263 345.976 38.2209C358.289 36.6183 358.866 35.9131 363.291 35.9131C372.012 35.9131 380.414 39.5672 388.43 42.3879C427.613 55.4657 456.151 97.3915 482.958 133.676C503.928 162.075 506.493 162.973 525.091 192.847C533.3 207.207 542.535 234.58 545.164 272.211C545.228 272.852 544.715 283.814 544.266 290.417C546.511 329.138 541.124 367.41 523.424 401.386C489.691 462.865 460.191 480.943 438.323 497.034C407.925 519.407 376.245 542.678 337.382 539.857C331.995 539.857 326.865 539.857 321.799 539.793C274.47 539.536 271.2 541.331 261.388 541.844C247.408 542.613 229.323 540.177 218.036 531.844ZM48.8605 340.485C64.1235 393.629 86.056 436.068 132.358 466.262C163.91 487.418 188.151 508.701 219.19 530.241C230.221 538.382 248.241 540.562 261.324 539.921C272.739 539.344 272.739 537.613 325.775 537.87C333.214 537.934 337.51 537.87 337.51 537.87C375.668 540.69 406.963 517.676 437.169 495.431C463.847 475.814 477.186 467.352 503.543 429.978C512.265 417.605 521.692 401.963 527.528 387.924C547.601 339.908 542.022 294.905 542.278 290.289C542.663 283.814 542.984 277.916 543.176 272.211C542.342 260.159 540.803 248.748 538.687 238.298C535.544 222.785 530.799 207.848 523.36 193.808C517.139 183.808 510.47 173.743 503.608 163.999C464.873 116.047 438.451 67.1331 396.703 47.7729C391.7 45.465 389.199 44.7598 383.941 42.8366C353.8 31.8744 373.167 42.5161 285.052 43.7982C280.563 43.8623 275.945 43.9264 270.494 43.9905C264.851 43.4136 259.207 43.2213 253.5 43.6059C232.016 46.9395 212.072 55.5939 193.987 67.0049C171.67 82.4546 171.221 83.2239 166.475 87.1344C158.395 93.7375 155.766 96.3017 152.174 102.648C139.541 122.842 125.496 139.574 103.692 153.613C99.9081 155.793 98.0484 160.729 97.7277 161.434C93.8158 168.037 91.5071 172.461 89.9038 175.602C83.1702 189.064 68.9333 196.693 59.8268 208.168C52.7725 216.951 50.8486 222.849 49.8866 225.028C41.2932 242.658 38.5997 262.338 38.7921 282.147C38.9203 290.225 38.6638 303.559 48.8605 340.485Z" fill="white"/>
<path d="M335.586 550.69C328.916 550.498 321.477 549.216 290.117 549.216C264.722 549.216 264.85 550.626 252.024 550.69C235.799 550.69 219.382 547.934 206.748 537.741C171.028 508.252 138.578 479.147 101.639 454.017C57.3247 429.977 51.8737 370.422 32.4422 319.329C31.4803 316.444 31.352 312.085 29.9411 305.033C26.6064 282.211 26.4781 258.171 33.6607 236.054C38.6628 220.54 49.3085 203.296 59.9541 192.461C70.7279 181.435 70.279 187.076 83.2333 164.447C101.767 132.073 98.7528 150.856 129.535 113.418C147.684 91.365 145.247 91.8137 175.966 69.1199C187.317 61.363 197.962 55.0164 216.368 42.5156C228.36 34.1176 242.02 35.2074 257.603 35.2074C282.935 35.2074 344.884 27.3223 351.811 27.3223C376.629 27.3223 405.231 41.1052 420.879 51.4905C456.407 75.0177 479.173 112.392 510.918 156.305C513.996 160.857 530.798 185.602 531.119 186.051C536.313 195.539 541.7 205.411 544.778 215.86C556.514 248.427 554.141 271.249 552.987 289.968C557.219 331.894 550.935 362.537 539.584 388.885C537.211 394.462 533.62 402.924 520.537 422.284C515.791 431.58 510.34 440.811 504.12 449.722C496.488 462.287 486.933 473.698 474.94 484.596C465 493.635 462.05 495.302 453.649 501.072C417.416 526.073 380.028 551.844 335.586 550.69ZM328.467 548.254C332.123 548.575 335.393 548.767 338.471 548.767C385.094 548.767 424.213 518.765 462.243 492.802C478.339 480.045 491.871 466.005 502.452 448.632C508.481 440.042 513.932 431.003 518.806 421.323C518.806 421.323 522.91 415.297 526.629 409.271C533.62 397.86 540.482 384.526 545.933 365.294C556.129 328.753 550.935 291.122 550.999 289.904C552.153 271.313 554.526 248.875 542.918 216.502C539.904 206.18 534.517 196.436 529.387 187.012C474.556 106.302 447.749 66.8121 407.54 45.9132C386.505 35.0792 363.931 26.4889 340.459 30.2071C317.565 32.7713 276.265 37.2588 253.178 37.1306C225.41 36.9383 224.897 39.3102 206.492 51.4905C193.794 60.0167 183.084 66.2992 173.464 73.4151C150.57 90.2752 147.877 93.8652 135.884 108.738C97.5985 156.241 104.14 131.881 84.9648 165.472C83.4257 168.165 76.2431 180.986 71.241 185.282C57.1323 195.41 46.7433 211.309 39.24 226.951C23.8488 262.21 31.4161 298.879 33.0835 311.572C34.4303 322.086 32.314 309.456 49.6291 365.999C60.0182 399.975 70.7921 435.042 102.665 452.351C126.329 466.711 188.599 520.24 208.031 536.266C229.643 553.768 261.643 547.87 279.408 547.357C295.376 547.229 312.05 547.229 328.467 548.254Z" fill="white"/>
<path d="M237.082 558.961C210.147 558.192 190.075 539.344 172.311 522.548C166.218 516.779 159.934 510.881 153.392 505.56C142.618 496.841 129.921 486.584 116.902 476.712C100.87 464.596 98.6892 463.313 93.687 460.172C83.2979 453.569 70.4078 444.979 58.9285 426.003C45.4611 403.63 40.5872 377.731 33.0199 350.421C24.2341 318.496 23.8493 328.176 20.7069 306.508C17.9493 286.122 17.308 264.967 21.4123 244.901C25.5808 224.708 36.2264 201.117 52.0666 187.013C72.3958 168.358 79.0654 148.036 111.579 115.662C123.187 102.713 128.381 95.5326 144.222 81.8778C163.589 65.21 178.403 56.5556 202.516 39.5673C203.157 39.1827 206.941 36.9389 211.109 35.0157C237.21 22.6431 254.782 25.3356 328.852 20.784C355.787 15.976 383.363 19.6301 408.566 33.6054C444.736 50.8501 469.233 82.9676 492.192 115.726C504.826 132.843 513.419 145.215 527.143 165.024C551.641 193.937 561.004 232.657 561.004 271.249C559.785 301.764 559.529 277.981 562.415 304.072C567.737 352.665 554.334 389.014 528.49 427.734C522.846 441.132 515.728 452.992 507.134 464.339C499.888 475.943 490.845 486.264 479.494 496.072C474.556 500.367 469.233 504.342 468.592 504.791C428.703 529.664 387.724 559.217 339.562 559.217C337.831 559.217 333.277 558.961 293.324 559.153C274.598 559.281 255.808 559.41 237.082 558.961ZM39.0481 365.038C47.0003 395.168 54.6959 427.414 81.5664 449.21C89.3903 455.813 98.112 459.98 105.872 466.006C122.481 478.058 138.835 491.136 154.675 504.021C178.595 523.317 196.872 549.153 226.821 555.627C232.785 556.909 235.415 557.23 268.185 557.23C290.503 557.23 313.141 556.909 335.65 557.102C379.9 558.64 418.25 534.28 455.317 510.817C466.476 503.765 468.72 502.739 478.212 494.598C495.847 479.404 503.094 466.775 505.531 463.249C513.932 452.095 521.051 440.299 526.694 426.901C527.207 425.939 537.532 411.259 546.061 393.565C560.619 362.281 565.621 327.984 558.118 288.943C558.887 276.378 560.298 257.979 555.873 233.298C550.55 206.245 540.354 183.615 525.54 166.178L525.476 166.114C474.684 92.9042 449.545 55.4017 407.668 35.3363C390.225 25.6561 371.178 20.7199 351.106 20.7199C338.985 20.7199 329.943 22.579 328.981 22.7072C233.106 28.6691 230.284 22.9636 190.908 49.9526C159.1 71.7489 143.901 81.6214 118.89 110.213C108.245 122.393 102.601 126.624 89.5186 143.228C75.4741 160.986 67.8426 175.153 53.285 188.423C37.9579 202.142 30.2623 221.502 25.8373 234.901C18.9754 257.915 19.296 282.468 22.5667 306.188C26.0938 330.164 25.5167 312.919 39.0481 365.038Z" fill="white"/>
<path d="M235.094 568.769C207.133 567.936 186.226 548.319 168.013 531.074C161.729 525.112 155.187 518.958 148.39 513.509C137.231 504.47 124.084 493.828 110.553 483.635C93.9431 471.07 91.6344 469.724 86.504 466.519C76.0508 459.916 62.4552 450.941 50.527 431.068C36.6749 407.925 31.6727 381.321 23.7206 352.665C14.5499 319.586 14.101 329.586 10.8304 307.149C7.94453 285.994 7.30323 264.133 11.5999 243.299C15.8967 222.528 26.8629 198.039 43.3444 183.295C64.4432 163.998 71.3051 142.843 104.973 109.315C116.902 96.0452 122.353 88.5447 138.834 74.313C158.971 57.0042 174.491 47.9651 199.245 30.4639C199.886 30.0793 203.798 27.7715 208.159 25.72C235.286 12.8987 253.627 15.7194 330.199 10.9755C358.095 6.03923 386.762 9.75743 412.798 24.3097C450.25 42.1955 475.646 75.4028 499.438 109.379C512.585 127.137 521.178 139.638 535.672 160.473C561.003 190.41 570.815 230.541 570.751 270.608C569.468 302.213 569.212 277.532 572.226 304.649C577.677 354.46 564.274 392.155 537.083 432.798C531.247 446.581 523.872 458.954 514.958 470.75C507.455 482.738 498.027 493.508 486.292 503.636C481.033 508.124 475.646 512.227 475.005 512.676C433.705 538.446 391.187 569.025 341.293 569.025C339.498 569.025 334.88 568.769 293.388 568.961C273.892 569.09 254.461 569.218 235.094 568.769ZM29.8771 367.858C38.1498 399.014 46.102 432.478 73.9345 455.108C82.0149 461.903 91.1214 466.262 99.1377 472.545C116.325 485.045 133.255 498.572 149.736 511.906C174.555 531.908 193.473 558.64 224.512 565.371C230.669 566.718 233.49 567.038 267.351 567.038C290.63 567.038 314.038 566.718 337.253 566.91C383.042 568.513 422.739 543.383 461.281 518.958C472.888 511.586 475.197 510.624 485.009 502.098C502.645 486.905 509.827 474.66 513.355 469.596C522.14 457.992 529.451 445.748 535.287 431.965C535.864 430.875 546.574 415.682 555.36 397.411C570.879 364.076 575.497 328.176 567.865 289.007C568.891 272.275 569.725 254.774 565.557 231.311C560.041 203.232 549.46 179.833 534.133 161.755L534.069 161.691C481.674 86.1087 455.445 46.9394 411.901 26.1047C393.816 16.104 374.128 10.9755 353.286 10.9755C340.78 10.9755 331.353 12.8987 330.391 13.0269C304.418 14.6296 274.47 15.7194 253.435 17.2579C216.111 18.6042 198.026 33.9257 187.253 41.298C154.482 63.7354 138.642 74.0566 112.605 103.802C101.703 116.239 95.7388 120.855 82.2073 137.971C67.6497 156.434 59.7617 171.05 44.6911 184.833C28.7868 199.065 20.8347 219.13 16.2815 232.977C10.8945 251.12 9.8043 269.839 11.0228 288.558C11.4076 294.392 12.0489 300.546 12.8826 306.828C16.538 331.766 15.8325 313.56 29.8771 367.858Z" fill="white"/>
<path d="M263.119 577.359C227.975 576.526 228.681 577.103 221.498 575.692C183.213 568.384 139.219 517.419 76.8206 473.57C36.6751 445.299 31.7371 396.642 16.7948 349.908C13.6524 340.292 11.4078 335.099 11.2154 334.458C4.35351 311.187 -5.58667 287.147 3.9046 247.016C20.5143 186.307 36.6751 182.525 49.9501 164.511C65.4696 142.33 63.2891 137.009 105.359 90.9162C129.407 65.9146 153.905 45.3363 181.417 30.5917C222.14 7.57735 241.058 4.88486 292.747 3.66683C329.75 2.76934 332.444 1.4231 342.64 0.205067C349.695 -0.307788 356.749 0.205066 363.803 1.03846C438.9 8.47485 482.059 68.1583 510.02 106.687C522.461 122.329 527.143 128.867 534.454 138.868C562.543 177.589 582.615 210.796 578.703 287.596C584.026 321.829 583.834 358.37 571.136 390.744C568.763 396.578 566.006 402.219 565.621 402.86C549.139 429.977 549.588 428.311 542.342 439.08C525.604 478.122 496.104 509.598 485.971 516.97C449.738 540.69 406.129 566.14 358.096 575.308C357.454 575.436 350.079 576.141 342.191 576.718C315.77 578.641 289.412 578 263.119 577.359ZM231.952 574.795C274.534 575.243 315.064 578.128 357.711 573.513C405.424 564.409 448.712 539.087 484.817 515.496C488.152 512.739 491.422 509.662 494.693 506.457C525.796 475.301 540.289 438.824 540.61 438.183C548.177 426.9 546.189 430.682 556.13 414.592C563.056 403.437 564.787 400.937 569.276 390.103C587.938 342.536 576.587 290.417 576.715 287.66C581.076 201.629 555.745 167.46 508.481 107.969C482.444 72.0688 439.156 10.5904 363.675 3.08987C356.813 2.25649 349.887 1.74363 342.961 2.25649C302.559 8.66717 261.002 1.74363 221.691 13.988C213.61 16.5523 208.544 18.6037 196.167 24.8862C162.306 42.0668 129.856 63.9273 89.1336 112.264C73.7424 130.534 71.8185 133.355 62.1989 148.933C52.0664 165.473 50.0142 168.165 42.6392 175.858C25.5165 192.526 16.8589 211.694 9.80457 233.81C5.95676 245.862 4.86655 250.927 3.84047 257.145C-1.73886 290.801 6.21328 310.546 13.1393 333.689C32.4425 381.513 33.2762 440.491 77.975 471.967C146.081 519.919 190.844 574.795 231.952 574.795Z" fill="white"/>
</g>
</g>
</svg>
