<svg width="82" height="80" viewBox="0 0 82 80" fill="none" xmlns="http://www.w3.org/2000/svg">
<rect width="81.2266" height="80" fill="white"/>
<path fill-rule="evenodd" clip-rule="evenodd" d="M57.1738 30.0651C60.749 30.0651 63.6474 27.2105 63.6474 23.6893C63.6474 20.168 60.749 17.3135 57.1738 17.3135C53.5986 17.3135 50.7002 20.168 50.7002 23.6893C50.7002 27.2105 53.5986 30.0651 57.1738 30.0651Z" fill="#8055FA"/>
<path fill-rule="evenodd" clip-rule="evenodd" d="M57.1735 46.0784C60.7488 46.0784 63.6471 43.2239 63.6471 39.7028C63.6471 36.1816 60.7488 33.3271 57.1735 33.3271C53.5983 33.3271 50.7 36.1816 50.7 39.7028C50.7 43.2239 53.5983 46.0784 57.1735 46.0784Z" fill="#7550FB"/>
<path fill-rule="evenodd" clip-rule="evenodd" d="M57.1735 62.6862C60.7488 62.6862 63.6471 59.8316 63.6471 56.3104C63.6471 52.7891 60.7488 49.9346 57.1735 49.9346C53.5983 49.9346 50.7 52.7891 50.7 56.3104C50.7 59.8316 53.5983 62.6862 57.1735 62.6862Z" fill="#6A4AFC"/>
<path fill-rule="evenodd" clip-rule="evenodd" d="M40.3126 46.0784C43.8877 46.0784 46.7859 43.2239 46.7859 39.7028C46.7859 36.1816 43.8877 33.3271 40.3126 33.3271C36.7374 33.3271 33.8392 36.1816 33.8392 39.7028C33.8392 43.2239 36.7374 46.0784 40.3126 46.0784Z" fill="#6045FD"/>
<path fill-rule="evenodd" clip-rule="evenodd" d="M40.3123 62.6862C43.8875 62.6862 46.7857 59.8316 46.7857 56.3104C46.7857 52.7891 43.8875 49.9346 40.3123 49.9346C36.7372 49.9346 33.839 52.7891 33.839 56.3104C33.839 59.8316 36.7372 62.6862 40.3123 62.6862Z" fill="#553FFE"/>
<path fill-rule="evenodd" clip-rule="evenodd" d="M24.0528 62.6862C27.628 62.6862 30.5263 59.8316 30.5263 56.3104C30.5263 52.7891 27.628 49.9346 24.0528 49.9346C20.4775 49.9346 17.5792 52.7891 17.5792 56.3104C17.5792 59.8316 20.4775 62.6862 24.0528 62.6862Z" fill="#4A3AFF"/>
</svg>
